<?xml version="1.0" encoding="UTF-8"?>
<svg id="Livello_2" data-name="Livello 2" xmlns="http://www.w3.org/2000/svg" viewBox="0 0 303.21 74.4">
  <defs>
    <style>
      .cls-1 {
        fill: #fff;
      }
    </style>
  </defs>
  <g id="Livello_1-2" data-name="Livello 1">
    <g>
      <g>
        <path class="cls-1" d="M61.7,63.08c1.9-1.11,3.64-3.33,4.83-6.18l19.25-46.97h1.74c7.13,17.82,16.79,42.93,19.41,49.35.63,1.58,1.35,2.93,3.25,3.96,1.35.79,3.17,1.11,4.67,1.19v.48h-24.95v-.48c2.77-.16,8.32-.87,8.48-2.85,0-.55-.08-1.35-.32-1.9l-5.7-14.73h-19.72c-1.43,3.56-3.48,8.95-4.12,11.09-.55,1.9-1.03,3.56-1.03,4.67,0,2.85,6.5,3.56,9.66,3.72v.48h-20.36v-.48c1.5-.08,3.48-.47,4.91-1.35ZM91.88,43.83l-9.11-23.84-9.74,23.84h18.85Z"/>
        <path class="cls-1" d="M120.39,61.25l-2.77,4.36h-.55l-.48-18.61h.48c3.88,10.3,9.58,18.06,18.69,18.06,7.45,0,11.09-5.39,11.09-11.33,0-4.83-3.17-8.48-8.24-10.54-4.52-1.82-6.81-2.61-11.17-4.59-6.18-2.69-9.35-7.13-9.35-14.18,0-8.4,6.5-14.65,15.52-14.65,6.5,0,11.09,2.22,13.78,4.36l2.77-4.2h.48l.4,18.14h-.55c-3.17-9.58-8-17.5-17.11-17.5-5.31,0-9.35,4.36-9.35,9.43s2.46,7.76,7.52,10.22c3.88,1.9,7.21,2.85,10.69,4.51,6.73,3.09,11.09,6.34,11.09,14.73,0,9.9-7.84,16.47-17.58,16.47-7.29,0-12.12-2.46-15.37-4.67Z"/>
        <path class="cls-1" d="M158.89,63.08c1.9-1.11,3.64-3.33,4.83-6.18l19.25-46.97h1.74c7.13,17.82,16.79,42.93,19.41,49.35.63,1.58,1.35,2.93,3.25,3.96,1.35.79,3.17,1.11,4.67,1.19v.48h-24.95v-.48c2.77-.16,8.32-.87,8.48-2.85,0-.55-.08-1.35-.32-1.9l-5.7-14.73h-19.72c-1.43,3.56-3.49,8.95-4.12,11.09-.55,1.9-1.03,3.56-1.03,4.67,0,2.85,6.49,3.56,9.66,3.72v.48h-20.36v-.48c1.5-.08,3.48-.47,4.91-1.35ZM189.07,43.83l-9.11-23.84-9.74,23.84h18.85Z"/>
        <path class="cls-1" d="M235.72,48.82c6.97-7.76,12.67-13.31,20.83-21.47h-20.75c-4.52,0-8.16,2.46-12.67,9.5l-.79-.24,11.72-23.29h.71l-.08,4.44h31.45l-.32.95c-6.81,6.89-10.93,12.04-16.24,19.64-5.62,8-9.5,16.32-12.91,27.09-1.82,5.94-4.2,8.95-8.24,8.95-3.09,0-5.38-1.58-5.38-4.91,0-4.59,4.36-11.17,12.67-20.67Z"/>
        <path class="cls-1" d="M285.07,15.71c10.93,0,17.9,6.42,18.14,17.74.32,17.11-13.23,32.63-28.75,32.63-11.72,0-18.3-7.53-18.3-18.3,0-16.87,13.54-32.08,28.91-32.08ZM274.37,65.21c8.55,0,16.32-22.81,16.55-38.5,0-5.7-1.43-10.14-5.78-10.14-8.55,0-16.16,21.23-16.79,38.18-.24,6.97,1.66,10.46,6.02,10.46Z"/>
      </g>
      <g>
        <path class="cls-1" d="M60.83,10.68v.51c-1.43.08-5.78.88-7.21,1.83-2.06,1.34-2.61,5.78-2.61,10.93v41.5h-1.51L11.96,18.48v32.87c0,6.26.95,9.51,2.69,10.85,1.43,1.19,6.73,2.14,8.16,2.22v.48H.95v-.48c1.42-.16,6.02-1.03,7.21-1.9,1.82-1.19,2.69-4.43,2.69-10.85v-31.13c0-2.53-.95-4.99-2.62-6.42-1.82-1.58-5.7-2.61-8.23-2.93v-.39h16.23l33.67,41.98v-28.52c0-5.7-.87-9.74-2.69-11.01-1.51-1.11-6.26-1.98-8.08-2.06v-.51c4.44-.26,7.54-1.12,8.66-2.6,1.19-1.51,2.13-6.26,2.21-8.08h.41c0,.11.01.24.02.37.17,2.03,1.03,6.29,2.1,7.71,1.07,1.48,4.04,2.34,8.3,2.6Z"/>
        <path class="cls-1" d="M50.43,0v.37c-.01-.13-.02-.26-.02-.37h.02Z"/>
      </g>
    </g>
  </g>
</svg>