<?xml version="1.0" encoding="UTF-8"?>
<svg id="Livello_2" data-name="Livello 2" xmlns="http://www.w3.org/2000/svg" viewBox="0 0 228.67 48.35">
  <g id="Livello_1-2" data-name="Livello 1">
    <g>
      <path d="M173.43,46.83v.39h-10.24s-11.55-36.1-11.55-36.1c-.28-.87-.88-1.37-1.72-1.36-.75,0-1.42.43-1.68,1.26l-11.59,36.2-10.29-.03,12.85-40.15c1.11-2.86,3.08-5.2,5.99-6.24s5.94-1.02,8.82-.21c3.16.89,5.66,3.58,6.64,6.65l12.76,39.6Z"/>
      <path d="M102.28,10.85l-1.4.19c-2.96.4-3.54,3.89-2.69,5.97.27.65.78,1.3,1.47,1.63.8.38,1.75.68,2.7.69l12.34.11c4.94.04,9.67,1.79,12.12,6.31,1.6,2.93,1.94,5.86,1.72,9.14-.32,4.8-3.46,9.16-7.86,11.11-1.83.59-3.69,1.19-5.74,1.19l-32.63.05-11.69-36.51c-.25-.79-1.15-.99-1.81-.94-.74.06-1.23.56-1.48,1.36l-11.55,36.08-10.29-.03L58.27,7.26c1.07-2.96,3.06-5.39,6.05-6.46s5.94-1.02,8.82-.22c1.82.5,3.21,1.51,4.49,2.86.92,1.12,1.71,2.33,2.17,3.79l9.69,30.26,25.84-.05c1.96,0,3.29-1.46,3.49-3.19.22-1.17.18-2.33-.48-3.34-.95-1.45-2.76-1.87-4.47-1.89l-12.58-.12c-1.83-.02-3.55-.42-5.22-1.02-2.99-1.07-5.23-3.22-6.55-6.05-1.02-2.21-1.34-4.39-1.37-6.79-.04-3.51,1.05-6.73,3.43-9.35,3.15-3.46,6.18-4.12,10.8-4.57h24.16s0,9.72,0,9.72h-24.27Z"/>
      <path d="M39.92,47.44c-3.53,1.28-7.98,1.27-11.46-.38-4.47-2.11-5.73-6.48-6.92-10.95l-6.05-22.83c-.51-1.92-.89-3.3-3.02-3.4-1.25-.06-2.17.55-2.44,1.86v35.49s-10.03,0-10.03,0V10.4c.26-1.73.38-3.33,1.24-4.81C3.29,2.01,6.78.46,10.79.09c4.86-.45,9.87,1.22,12.18,5.83.96,1.91,1.55,3.89,2.12,6.01l6.38,24c.19.71.49,1.41.97,1.9.97.98,2.6.97,3.63.08.34-.29.48-.82.65-1.3V1.11s10.03,0,10.03,0v36.68c-.26,1.83-.38,3.49-1.28,5.03-1.27,2.17-3.19,3.76-5.54,4.61Z"/>
    </g>
    <g>
      <path d="M211.33,1.79c3.05,1.74,4.74,4.74,4.74,8.72,0,.4-.02.8-.06,1.2,3.56,2.98,5.82,7.45,5.82,12.45,0,8.96-7.29,16.25-16.25,16.25-2.43,0-4.74-.54-6.81-1.5l-4.12,5.6c3.25,1.75,6.97,2.75,10.93,2.75,12.75,0,23.08-10.34,23.08-23.08,0-10.77-7.38-19.81-17.34-22.37ZM204.77,1.1c-.06,0-.11,0-.17,0,.03,0,.07,0,.1,0,1.07.04,2.05.16,2.93.34-.84-.19-1.76-.31-2.77-.35h-.09ZM192.94,43.47s.03.03.04.03h0s-.03-.02-.04-.03ZM187.26,10.13c-.15.19-.29.38-.43.59.15-.2.29-.39.44-.59.05-.07.11-.14.16-.21-.06.07-.12.14-.17.21Z"/>
      <g>
        <g>
          <path d="M188.29,39.43s0,.02.02.02t-.02,0h0Z"/>
          <path d="M192.97,43.49h0s-.03,0-.04-.02c0,0,.02.02.04.02Z"/>
        </g>
        <path d="M214.51,7.02c-.03-.1-.07-.2-.11-.28-.29-.75-.69-1.47-1.22-2.12-.1-.12-.2-.23-.29-.34-.1-.11-.21-.21-.31-.32-.11-.11-.21-.21-.33-.31-.12-.11-.23-.21-.36-.3-.13-.1-.25-.19-.38-.28-.14-.09-.27-.18-.41-.26-.15-.09-.29-.18-.44-.25-.37-.2-.76-.38-1.18-.55,0,0-.02,0-.03,0-.17-.06-.33-.12-.5-.18-.15-.05-.3-.1-.46-.14-.27-.08-.56-.15-.85-.21-.88-.19-1.86-.3-2.93-.34-.03,0-.07,0-.1,0-.07,0-.13,0-.2,0-.16,0-.3,0-.47,0h-28.93v8.07h13.04c-.21.25-.43.51-.63.77-.05.07-.11.14-.16.21-.15.2-.29.39-.44.59-.2.27-.38.55-.57.83-.19.27-.36.56-.53.85-.18.28-.34.58-.5.87-.32.59-.62,1.19-.87,1.82-.14.31-.26.63-.38.94-.12.3-.22.61-.32.91,0,.03-.02.06-.03.08-.1.31-.2.63-.28.95-.09.32-.18.63-.24.96,0,.05-.02.09-.03.12-.06.24-.11.48-.15.72-.04.18-.08.35-.1.54-.04.2-.07.39-.1.59-.02.13-.04.26-.05.4-.04.24-.06.5-.09.74,0,.05,0,.1,0,.15-.03.31-.05.63-.06.94-.02.35-.03.7-.03,1.06,0,.39,0,.77.03,1.16.02.35.04.69.08,1.04,0,.15.03.3.05.45.02.21.05.42.08.63.03.2.06.38.09.57.02.14.04.26.07.39.04.24.09.48.15.71,0,.04,0,.08.03.12.06.29.14.6.21.89.19.71.41,1.41.66,2.09.09.22.18.46.27.68.12.28.23.56.36.84,0,.03.02.06.03.08.13.25.25.52.38.77.02.05.05.11.08.16.13.24.25.48.39.72,0,.03.03.06.05.09.45.8.95,1.57,1.49,2.32.21.27.42.55.63.81l-6.32,8.56h10.12l2.37-3.22,4.08-5.55,13.37-18.17c2.53-3.5,3.7-6.39,3.82-9.3,0-.16,0-.32,0-.48,0-1.17-.17-2.36-.58-3.5ZM192.97,43.5s-.03,0-.04-.03c0,0,.02.02.04.02h0Z"/>
      </g>
    </g>
  </g>
</svg>